<svg width="44" height="44" viewBox="0 0 44 44" fill="none" xmlns="http://www.w3.org/2000/svg">
<g filter="url(#filter0_d_1_594)">
<rect x="2" width="40" height="40" rx="20" fill="#FAFAFA"/>
<rect x="2.5" y="0.5" width="39" height="39" rx="19.5" stroke="#F0F0F0"/>
<path d="M22 18.7666C21.6583 18.7666 21.375 18.4833 21.375 18.1416V15.3666C21.375 15.025 21.6583 14.7416 22 14.7416C22.3417 14.7416 22.625 15.025 22.625 15.3666V18.1416C22.625 18.4916 22.3417 18.7666 22 18.7666Z" fill="#5C5959"/>
<path d="M22.0167 26.9583C19.8667 26.9583 17.725 26.6167 15.6833 25.9333C14.925 25.6833 14.35 25.1417 14.1 24.4583C13.85 23.775 13.9333 22.9917 14.3417 22.3083L15.4 20.5417C15.6333 20.15 15.8417 19.4167 15.8417 18.9583V17.2083C15.8417 13.8 18.6083 11.0333 22.0167 11.0333C25.425 11.0333 28.1917 13.8 28.1917 17.2083V18.9583C28.1917 19.4083 28.4 20.15 28.6333 20.5417L29.6917 22.3083C30.0833 22.9583 30.15 23.7333 29.8917 24.4417C29.6333 25.15 29.0667 25.6917 28.35 25.9333C26.3083 26.625 24.1667 26.9583 22.0167 26.9583ZM22.0167 12.2917C19.3 12.2917 17.0917 14.5 17.0917 17.2167V18.9667C17.0917 19.6417 16.825 20.6167 16.475 21.1917L15.4167 22.9667C15.2 23.325 15.15 23.7083 15.275 24.0417C15.4 24.375 15.6833 24.625 16.0833 24.7583C19.9167 26.0333 24.1333 26.0333 27.9667 24.7583C28.325 24.6417 28.6 24.375 28.725 24.025C28.8583 23.675 28.8167 23.2917 28.625 22.9667L27.5667 21.2C27.2167 20.625 26.95 19.65 26.95 18.975V17.225C26.9417 14.5 24.7333 12.2917 22.0167 12.2917Z" fill="#5C5959"/>
<path d="M22 29.0833C21.1083 29.0833 20.2333 28.7167 19.6 28.0833C18.9666 27.45 18.6 26.575 18.6 25.6833H19.85C19.85 26.25 20.0833 26.8 20.4833 27.2C20.8833 27.6 21.4333 27.8333 22 27.8333C23.1833 27.8333 24.15 26.8667 24.15 25.6833H25.4C25.4 27.5583 23.875 29.0833 22 29.0833Z" fill="#5C5959"/>
<circle cx="29" cy="12" r="5.5" fill="#E51837" stroke="#F4F4F4"/>
</g>
<defs>
<filter id="filter0_d_1_594" x="0" y="0" width="44" height="44" filterUnits="userSpaceOnUse" color-interpolation-filters="sRGB">
<feFlood flood-opacity="0" result="BackgroundImageFix"/>
<feColorMatrix in="SourceAlpha" type="matrix" values="0 0 0 0 0 0 0 0 0 0 0 0 0 0 0 0 0 0 127 0" result="hardAlpha"/>
<feOffset dy="2"/>
<feGaussianBlur stdDeviation="1"/>
<feComposite in2="hardAlpha" operator="out"/>
<feColorMatrix type="matrix" values="0 0 0 0 0.137255 0 0 0 0 0.137255 0 0 0 0 0.137255 0 0 0 0.05 0"/>
<feBlend mode="normal" in2="BackgroundImageFix" result="effect1_dropShadow_1_594"/>
<feBlend mode="normal" in="SourceGraphic" in2="effect1_dropShadow_1_594" result="shape"/>
</filter>
</defs>
</svg>
