<svg width="44" height="44" viewBox="0 0 44 44" fill="none" xmlns="http://www.w3.org/2000/svg">
<g filter="url(#filter0_d_1_591)">
<rect x="2" width="40" height="40" rx="20" fill="#FAFAFA"/>
<rect x="2.5" y="0.5" width="39" height="39" rx="19.5" stroke="#F0F0F0"/>
<path d="M22 23.125C20.275 23.125 18.875 21.725 18.875 20C18.875 18.275 20.275 16.875 22 16.875C23.725 16.875 25.125 18.275 25.125 20C25.125 21.725 23.725 23.125 22 23.125ZM22 18.125C20.9667 18.125 20.125 18.9667 20.125 20C20.125 21.0333 20.9667 21.875 22 21.875C23.0333 21.875 23.875 21.0333 23.875 20C23.875 18.9667 23.0333 18.125 22 18.125Z" fill="#5C5959"/>
<path d="M24.675 28.4917C24.5 28.4917 24.325 28.4667 24.15 28.425C23.6334 28.2833 23.2 27.9583 22.925 27.5L22.825 27.3333C22.3334 26.4833 21.6584 26.4833 21.1667 27.3333L21.075 27.4917C20.8 27.9583 20.3667 28.2917 19.85 28.425C19.325 28.5667 18.7834 28.4917 18.325 28.2167L16.8917 27.3917C16.3834 27.1 16.0167 26.625 15.8584 26.05C15.7084 25.475 15.7834 24.8833 16.075 24.375C16.3167 23.95 16.3834 23.5667 16.2417 23.325C16.1 23.0833 15.7417 22.9417 15.25 22.9417C14.0334 22.9417 13.0417 21.95 13.0417 20.7333V19.2667C13.0417 18.05 14.0334 17.0583 15.25 17.0583C15.7417 17.0583 16.1 16.9167 16.2417 16.675C16.3834 16.4333 16.325 16.05 16.075 15.625C15.7834 15.1167 15.7084 14.5167 15.8584 13.95C16.0084 13.375 16.375 12.9 16.8917 12.6083L18.3334 11.7833C19.275 11.225 20.5167 11.55 21.0834 12.5083L21.1834 12.675C21.675 13.525 22.35 13.525 22.8417 12.675L22.9334 12.5167C23.5 11.55 24.7417 11.225 25.6917 11.7917L27.125 12.6167C27.6334 12.9083 28 13.3833 28.1584 13.9583C28.3084 14.5333 28.2334 15.125 27.9417 15.6333C27.7 16.0583 27.6334 16.4417 27.775 16.6833C27.9167 16.925 28.275 17.0667 28.7667 17.0667C29.9834 17.0667 30.975 18.0583 30.975 19.275V20.7417C30.975 21.9583 29.9834 22.95 28.7667 22.95C28.275 22.95 27.9167 23.0917 27.775 23.3333C27.6334 23.575 27.6917 23.9583 27.9417 24.3833C28.2334 24.8917 28.3167 25.4917 28.1584 26.0583C28.0084 26.6333 27.6417 27.1083 27.125 27.4L25.6834 28.225C25.3667 28.4 25.025 28.4917 24.675 28.4917ZM22 25.4083C22.7417 25.4083 23.4334 25.875 23.9084 26.7L24 26.8583C24.1 27.0333 24.2667 27.1583 24.4667 27.2083C24.6667 27.2583 24.8667 27.2333 25.0334 27.1333L26.475 26.3C26.6917 26.175 26.8584 25.9667 26.925 25.7167C26.9917 25.4667 26.9584 25.2083 26.8334 24.9917C26.3584 24.175 26.3 23.3333 26.6667 22.6917C27.0334 22.05 27.7917 21.6833 28.7417 21.6833C29.275 21.6833 29.7 21.2583 29.7 20.725V19.2583C29.7 18.7333 29.275 18.3 28.7417 18.3C27.7917 18.3 27.0334 17.9333 26.6667 17.2917C26.3 16.65 26.3584 15.8083 26.8334 14.9917C26.9584 14.775 26.9917 14.5167 26.925 14.2667C26.8584 14.0167 26.7 13.8167 26.4834 13.6833L25.0417 12.8583C24.6834 12.6417 24.2084 12.7667 23.9917 13.1333L23.9 13.2917C23.425 14.1167 22.7334 14.5833 21.9917 14.5833C21.25 14.5833 20.5584 14.1167 20.0834 13.2917L19.9917 13.125C19.7834 12.775 19.3167 12.65 18.9584 12.8583L17.5167 13.6917C17.3 13.8167 17.1334 14.025 17.0667 14.275C17 14.525 17.0334 14.7833 17.1584 15C17.6334 15.8167 17.6917 16.6583 17.325 17.3C16.9584 17.9417 16.2 18.3083 15.25 18.3083C14.7167 18.3083 14.2917 18.7333 14.2917 19.2667V20.7333C14.2917 21.2583 14.7167 21.6917 15.25 21.6917C16.2 21.6917 16.9584 22.0583 17.325 22.7C17.6917 23.3417 17.6334 24.1833 17.1584 25C17.0334 25.2167 17 25.475 17.0667 25.725C17.1334 25.975 17.2917 26.175 17.5084 26.3083L18.95 27.1333C19.125 27.2417 19.3334 27.2667 19.525 27.2167C19.725 27.1667 19.8917 27.0333 20 26.8583L20.0917 26.7C20.5667 25.8833 21.2584 25.4083 22 25.4083Z" fill="#5C5959"/>
</g>
<defs>
<filter id="filter0_d_1_591" x="0" y="0" width="44" height="44" filterUnits="userSpaceOnUse" color-interpolation-filters="sRGB">
<feFlood flood-opacity="0" result="BackgroundImageFix"/>
<feColorMatrix in="SourceAlpha" type="matrix" values="0 0 0 0 0 0 0 0 0 0 0 0 0 0 0 0 0 0 127 0" result="hardAlpha"/>
<feOffset dy="2"/>
<feGaussianBlur stdDeviation="1"/>
<feComposite in2="hardAlpha" operator="out"/>
<feColorMatrix type="matrix" values="0 0 0 0 0.137255 0 0 0 0 0.137255 0 0 0 0 0.137255 0 0 0 0.05 0"/>
<feBlend mode="normal" in2="BackgroundImageFix" result="effect1_dropShadow_1_591"/>
<feBlend mode="normal" in="SourceGraphic" in2="effect1_dropShadow_1_591" result="shape"/>
</filter>
</defs>
</svg>
