<svg width="18" height="18" viewBox="0 0 18 18" fill="none" xmlns="http://www.w3.org/2000/svg">
<path d="M13.5525 7.74002C13.41 7.74002 13.2675 7.68752 13.155 7.57502L9 3.42002L4.845 7.57502C4.6275 7.79252 4.2675 7.79252 4.05 7.57502C3.8325 7.35752 3.8325 6.99752 4.05 6.78002L8.6025 2.22752C8.82 2.01002 9.18 2.01002 9.3975 2.22752L13.95 6.78002C14.1675 6.99752 14.1675 7.35752 13.95 7.57502C13.845 7.68752 13.695 7.74002 13.5525 7.74002Z" fill="#449E6A"/>
<path d="M9 15.9375C8.6925 15.9375 8.4375 15.6825 8.4375 15.375V2.7525C8.4375 2.445 8.6925 2.19 9 2.19C9.3075 2.19 9.5625 2.445 9.5625 2.7525V15.375C9.5625 15.6825 9.3075 15.9375 9 15.9375Z" fill="#449E6A"/>
</svg>
