<svg width="18" height="19" viewBox="0 0 18 19" fill="none" xmlns="http://www.w3.org/2000/svg">
<path d="M9 16.526C8.8575 16.526 8.715 16.4735 8.6025 16.361L4.05 11.8085C3.8325 11.591 3.8325 11.231 4.05 11.0135C4.2675 10.796 4.6275 10.796 4.845 11.0135L9 15.1685L13.155 11.0135C13.3725 10.796 13.7325 10.796 13.95 11.0135C14.1675 11.231 14.1675 11.591 13.95 11.8085L9.3975 16.361C9.285 16.4735 9.1425 16.526 9 16.526Z" fill="#E51837"/>
<path d="M9 16.3984C8.6925 16.3984 8.4375 16.1434 8.4375 15.8359L8.4375 3.21344C8.4375 2.90594 8.6925 2.65094 9 2.65094C9.3075 2.65094 9.5625 2.90594 9.5625 3.21344L9.5625 15.8359C9.5625 16.1434 9.3075 16.3984 9 16.3984Z" fill="#E51837"/>
</svg>
