<svg width="20" height="20" viewBox="0 0 20 20" fill="none" xmlns="http://www.w3.org/2000/svg">
<path d="M9.99999 18.9583C5.05832 18.9583 1.04166 14.9417 1.04166 10C1.04166 5.05833 5.05832 1.04167 9.99999 1.04167C14.9417 1.04167 18.9583 5.05833 18.9583 10C18.9583 14.9417 14.9417 18.9583 9.99999 18.9583ZM9.99999 2.29167C5.74999 2.29167 2.29166 5.75 2.29166 10C2.29166 14.25 5.74999 17.7083 9.99999 17.7083C14.25 17.7083 17.7083 14.25 17.7083 10C17.7083 5.75 14.25 2.29167 9.99999 2.29167Z" fill="#9B9697"/>
<path d="M9.99999 10.8333C9.53332 10.8333 9.16666 10.4583 9.16666 10C9.16666 9.54167 9.54166 9.16667 9.99999 9.16667C10.4583 9.16667 10.8333 9.54167 10.8333 10C10.8333 10.4583 10.4667 10.8333 9.99999 10.8333Z" fill="#9B9697"/>
<path d="M13.3333 10.8333C12.8667 10.8333 12.5 10.4583 12.5 10C12.5 9.54167 12.875 9.16667 13.3333 9.16667C13.7917 9.16667 14.1667 9.54167 14.1667 10C14.1667 10.4583 13.8 10.8333 13.3333 10.8333Z" fill="#9B9697"/>
<path d="M6.66668 10.8333C6.20001 10.8333 5.83334 10.4583 5.83334 10C5.83334 9.54167 6.20834 9.16667 6.66668 9.16667C7.12501 9.16667 7.50001 9.54167 7.50001 10C7.50001 10.4583 7.13334 10.8333 6.66668 10.8333Z" fill="#9B9697"/>
</svg>
