<svg width="20" height="20" viewBox="0 0 20 20" fill="none" xmlns="http://www.w3.org/2000/svg">
<path d="M17.0833 13.9583H15.2083V12.0833C15.2083 11.7416 14.925 11.4583 14.5833 11.4583C14.2416 11.4583 13.9583 11.7416 13.9583 12.0833V13.9583H12.0833C11.7416 13.9583 11.4583 14.2416 11.4583 14.5833C11.4583 14.925 11.7416 15.2083 12.0833 15.2083H13.9583V17.0833C13.9583 17.425 14.2416 17.7083 14.5833 17.7083C14.925 17.7083 15.2083 17.425 15.2083 17.0833V15.2083H17.0833C17.425 15.2083 17.7083 14.925 17.7083 14.5833C17.7083 14.2416 17.425 13.9583 17.0833 13.9583Z" fill="#5271FF"/>
<path d="M18.3333 7.10002V3.31669C18.3333 2.14169 17.8 1.66669 16.475 1.66669H13.1083C11.7833 1.66669 11.25 2.14169 11.25 3.31669V7.09169C11.25 8.27502 11.7833 8.74169 13.1083 8.74169H16.475C17.8 8.75002 18.3333 8.27502 18.3333 7.10002Z" fill="#5271FF"/>
<path d="M8.75002 7.10002V3.31669C8.75002 2.14169 8.21669 1.66669 6.89169 1.66669H3.52502C2.20002 1.66669 1.66669 2.14169 1.66669 3.31669V7.09169C1.66669 8.27502 2.20002 8.74169 3.52502 8.74169H6.89169C8.21669 8.75002 8.75002 8.27502 8.75002 7.10002Z" fill="#5271FF"/>
<path d="M8.75002 16.475V13.1083C8.75002 11.7833 8.21669 11.25 6.89169 11.25H3.52502C2.20002 11.25 1.66669 11.7833 1.66669 13.1083V16.475C1.66669 17.8 2.20002 18.3333 3.52502 18.3333H6.89169C8.21669 18.3333 8.75002 17.8 8.75002 16.475Z" fill="#5271FF"/>
</svg>
