<svg width="281" height="279" viewBox="0 0 281 279" fill="none" xmlns="http://www.w3.org/2000/svg">
<path d="M265.961 139.499C273.316 139.499 279.345 133.522 278.643 126.2C276.171 100.417 266.545 75.7392 250.731 55.0196C234.925 34.3109 213.685 18.5378 189.504 9.37744C182.614 6.7673 175.25 11.0233 173.318 18.1336C171.388 25.2371 175.621 32.4877 182.443 35.2506C201.008 42.7682 217.309 55.1557 229.567 71.2156C241.83 87.2817 249.488 106.292 251.856 126.211C252.724 133.515 258.605 139.499 265.961 139.499Z" fill="#FF9C33"/>
<path d="M206.904 32.3477C210.657 26.2505 208.744 18.2148 202.304 15.1144C184.022 6.31227 163.959 1.54717 143.509 1.21756C118.709 0.817823 94.2338 6.95624 72.597 19.0026C50.9602 31.049 32.9411 48.5694 20.3895 69.7651C10.0543 87.218 3.73286 106.645 1.80516 126.664C1.11865 133.794 6.98013 139.607 14.1413 139.602C21.3026 139.596 27.0377 133.766 27.8779 126.653C29.7038 111.194 34.7524 96.2219 42.7575 82.7038C52.9802 65.4409 67.6559 51.1714 85.2781 41.3601C102.9 31.5489 122.834 26.5494 143.033 26.875C158.96 27.1317 174.599 30.6919 188.958 37.2718C195.37 40.2103 203.2 38.3646 206.904 32.3477Z" fill="#5271FF"/>
</svg>
