<svg width="24" height="12" viewBox="0 0 24 12" fill="none" xmlns="http://www.w3.org/2000/svg">
<path d="M22.5 12C23.3284 12 24.0097 11.3258 23.9064 10.5038C23.5759 7.8729 22.3801 5.40958 20.4853 3.51472C18.2348 1.26428 15.1826 2.40279e-07 12 0C8.8174 -2.40279e-07 5.76516 1.26428 3.51472 3.51472C1.61985 5.40958 0.424135 7.8729 0.0935889 10.5038C-0.0096808 11.3258 0.671573 12 1.5 12C2.32843 12 2.98725 11.3238 3.12468 10.5069C3.43307 8.6738 4.30434 6.96774 5.63604 5.63604C7.32387 3.94821 9.61305 3 12 3C14.3869 3 16.6761 3.94821 18.364 5.63604C19.6957 6.96774 20.5669 8.6738 20.8753 10.5069C21.0128 11.3238 21.6716 12 22.5 12Z" fill="#5271FF"/>
</svg>
